<?xml version="1.0" encoding="UTF-8" standalone="no"?>
<svg
   width="140.982"
   height="100"
   viewBox="0 0 37.301 26.458"
   version="1.1"
   id="svg5"
   sodipodi:docname="Auckland_University_of_Technology.svg"
   inkscape:version="1.4.2 (f4327f4, 2025-05-13)"
   xmlns:inkscape="http://www.inkscape.org/namespaces/inkscape"
   xmlns:sodipodi="http://sodipodi.sourceforge.net/DTD/sodipodi-0.dtd"
   xmlns="http://www.w3.org/2000/svg"
   xmlns:svg="http://www.w3.org/2000/svg">
  <sodipodi:namedview
     id="namedview5"
     pagecolor="#ffffff"
     bordercolor="#000000"
     borderopacity="0.25"
     inkscape:showpageshadow="2"
     inkscape:pageopacity="0.0"
     inkscape:pagecheckerboard="0"
     inkscape:deskcolor="#d1d1d1"
     inkscape:zoom="5.6568543"
     inkscape:cx="-7.9549513"
     inkscape:cy="-16.263456"
     inkscape:window-width="3840"
     inkscape:window-height="2053"
     inkscape:window-x="-11"
     inkscape:window-y="-11"
     inkscape:window-maximized="1"
     inkscape:current-layer="svg5" />
  <defs
     id="defs1">
    <clipPath
       id="A">
      <path
         d="M42.52 386.285h60.214v42.7H42.52z"
         id="path1" />
    </clipPath>
  </defs>
  <g
     transform="matrix(1.756041 0 0 1.756041 23.786901 -258.29203)"
     id="g5">
    <g
       clip-path="url(#A)"
       transform="matrix(.352778 0 0 -.352778 -28.545862 298.42738)"
       id="g2">
      <path
         d="M42.52 386.285h60.213v42.7H42.52z"
         fill="#fff"
         id="path2" />
    </g>
    <path
       d="M-8.407 155.803l.528-2.825h.017l.53 2.825zm-.117-4.535l-1.5 6.707h1.208l.218-1.13h1.475l.218 1.13h1.257l-1.5-6.707zm6.472 5.575H-3.3v-5.576h-1.257v5.66l1.048 1.048h1.677l1.048-1.048v-5.66H-2.04zm-5.916-1.406h.194l-.097-.517zm8.38-3.037H1.67v5.575h1.258V152.4h1.256v-1.132H.412z"
       id="path3" />
    <g
       clip-path="url(#A)"
       transform="matrix(.352778 0 0 -.352778 -28.545862 298.42738)"
       id="g4">
      <path
         d="M93.814 413.938c0-.272-.11-.54-.304-.732s-.46-.303-.732-.303h-2.525v-14.768c0-.273-.11-.54-.305-.732s-.46-.303-.732-.303H85.65c-.273 0-.54.1-.732.303s-.304.46-.304.732v14.767h-2.53c-.273 0-.54.112-.732.303s-.304.46-.304.733v3.208a1.04 1.04 0 0 0 1.036 1.036h10.693a1.04 1.04 0 0 0 .732-.303c.193-.193.304-.46.304-.733zM79.7 401.106a1.04 1.04 0 0 0-.302-.731l-2.97-2.972a1.03 1.03 0 0 0-.733-.305l-4.756.002c-.275 0-.535.108-.732.303l-2.968 2.972a1.03 1.03 0 0 0-.304.731v16.04c0 .272.11.54.304.733a1.04 1.04 0 0 0 .733.302h3.562a1.04 1.04 0 0 0 1.036-1.035v-14.77h1.495v14.77c0 .272.11.54.304.733a1.04 1.04 0 0 0 .732.302h3.564a1.04 1.04 0 0 0 1.035-1.035zm-14.01-3.618c-.197-.246-.495-.4-.808-.4l-3.567.001c-.498 0-.923.352-1.017.84l-.457 2.365h-2.47l-.456-2.365c-.094-.49-.52-.84-1.018-.84h-3.424a1.04 1.04 0 0 0-.809.389c-.197.247-.27.568-.2.874l4.28 19.01c.106.475.525.81 1.01.81h3.85c.483 0 .902-.334 1.01-.81l4.28-19.01a1.04 1.04 0 0 0-.202-.874m-23.17-11.203h60.213v42.7H42.52z"
         id="path4" />
    </g>
  </g>
</svg>
