<?xml version="1.0"?><!-- Uploaded to: SVG Repo, www.svgrepo.com, Generator: SVG Repo Mixer Tools -->
<svg width="800px" height="800px" viewBox="0 0 32 32" data-name="Layer 1" id="Layer_1"
    xmlns="http://www.w3.org/2000/svg">
    <path
        d="M26.0762,18.5,23.248,15.6719l1.7676-1.7676a3.0014,3.0014,0,0,0,0-4.2432,3.0716,3.0716,0,0,0-4.2422,0L17.9443,6.833a7,7,0,0,1,9.9,9.8994Z"
        fill="#4285f4" />
    <rect fill="#4285f4" height="3.9996" transform="translate(-2.2826 15.2256) rotate(-45)"
        width="6.9996" x="13.7378" y="8.3684" />
    <path
        d="M6.2773,18.5l-2.121-2.1211A7,7,0,1,1,14.0557,6.48l2.1211,2.1211-2.8282,2.8281L11.2271,9.3076a3.0706,3.0706,0,0,0-4.2422,0,3,3,0,0,0,0,4.2432l2.1206,2.1211Z"
        fill="#ea4435" />
    <rect fill="#fbc02d" height="3.9996" transform="translate(-8.293 12.7359) rotate(-45)"
        width="10.0003" x="6.2269" y="14.3786" />
    <polygon fill="#00ac47"
        points="16.177 28.399 9.106 21.328 11.934 18.5 16.177 22.743 23.248 15.672 26.076 18.5 16.177 28.399" />
</svg>