<?xml version="1.0" ?><!-- Uploaded to: SVG Repo, www.svgrepo.com, Generator: SVG Repo Mixer Tools -->
<svg width="800px" height="800px" viewBox="0 0 32 32" data-name="Layer 1" id="Layer_1" xmlns="http://www.w3.org/2000/svg"><path d="M9.635,22.365l3.182,3.1819a1.9715,1.9715,0,0,0,1.4236.5764,2.0626,2.0626,0,0,0,1.4369-.6084l5.2712-5.2713-4.5961-4.5962Z" fill="#00ac47"/><path d="M9.635,22.365,6.4531,19.183a1.9715,1.9715,0,0,1-.5764-1.4236,2.0626,2.0626,0,0,1,.6084-1.4369l5.2713-5.2712,4.5962,4.5961Z" fill="#fbc02d"/><path d="M25.8152,14.6214l.3061-6.67a1.976,1.976,0,0,0-.5764-1.4963l-9.1923,9.1923,4.5961,4.5962,4.2648-4.2647A2.0562,2.0562,0,0,0,25.8152,14.6214Z" fill="#4285f4"/><path d="M17.3786,6.1848l6.67-.3061a1.976,1.976,0,0,1,1.4963.5764l-9.1923,9.1923-4.5962-4.5961,4.2647-4.2648A2.0562,2.0562,0,0,1,17.3786,6.1848Z" fill="#ea4435"/><circle cx="16.3526" cy="15.6474" fill="#4285f4" r="2.75"/><circle cx="22.0094" cy="9.9906" fill="#ffffff" r="1.25"/><path d="M16.3525,19.8975a4.25,4.25,0,1,1,3.0049-7.2549l-1.06,1.06a2.8154,2.8154,0,0,0-3.8887,0,2.7505,2.7505,0,0,0,3.5188,4.2011,2.7637,2.7637,0,0,0,1.072-1.5067H16.3525v-1.5h3.6683a.5817.5817,0,0,1,.5817.5817h0a4.4779,4.4779,0,0,1-.878,2.7567A4.2382,4.2382,0,0,1,16.3525,19.8975Z" fill="#ffffff"/></svg>