<svg width="516" height="516" viewBox="300 0 120 56" fill="none" xmlns="http://www.w3.org/2000/svg">
    <g clip-path="url(#a)">
        <path
            d="M377.181 44.753a33.6 33.6 0 0 0-10.619.022l-.184.03a33.7 33.7 0 0 0-10.227 3.454c-5.691 2.579-1.737 9.059 2.725 6.503 5.262-3.041 10.953-4.917 17.369-4.6 4.194.307 4.378-4.936.936-5.41m-68.988 9.439a33.6 33.6 0 0 0 5.804-8.896l.075-.17a33.8 33.8 0 0 0 2.714-10.445c.966-6.175-6.623-6.42-6.931-1.289-.339 6.059-1.88 11.855-5.676 17.05-2.556 3.337 1.729 6.366 4.011 3.758"
            fill="#4854d3" />
        <path
            d="m415.833 21.115-.101-.026-1.504-.342a117 117 0 0 0-6.675-1.297c-.955-.158-1.969-.304-3.007-.458a59 59 0 0 0-3.251-.376c-1.113-.102-2.236-.2-3.383-.286a65 65 0 0 0-3.383-.158 197 197 0 0 0-3.281-.041h-.24a11.4 11.4 0 0 1 .375 4.886h.109c1.004-.056 2.045-.131 3.101-.154a150 150 0 0 1 3.21-.045c1.075 0 2.158.019 3.218.075 1.059.056 2.108.105 3.119.173a70 70 0 0 1 2.921.26c.928.1 1.804.191 2.631.3 1.62.203 2.965.41 3.909.564l1.503.24h.034a1.7 1.7 0 0 0 1.752-2.563 1.7 1.7 0 0 0-1.019-.76"
            fill="#f9af2c" />
        <path
            d="M391.004 18.132c-1.094-3.605-3.984-6.612-8.172-7.93-16.034-5.049-37.436-5.804-51.32.375-5.766 2.57-10.554 7.356-12.441 13.907a21.49 21.49 0 0 0 9.016 24.054 21.5 21.5 0 0 0 25.627-1.761c6.848-5.917 12.336-12.378 26.517-13.637 5.695-.507 9.367-3.514 10.788-8.427q.249-.83.376-1.687a11.3 11.3 0 0 0-.376-4.887"
            fill="#4854d3" />
        <path d="M386.435 23.299a6.48 6.48 0 1 1-12.45-3.6 6.48 6.48 0 0 1 12.45 3.6" fill="#fff" />
        <path
            d="M384.014 19.027a3.34 3.34 0 0 0-4.385-.048 3.335 3.335 0 0 0 3.572 5.558 3.334 3.334 0 0 0 1.779-4.007 1.55 1.55 0 0 1-1.003 1.37 1.541 1.541 0 1 1 .037-2.877"
            fill="#333" />
    </g>
</svg>